<svg viewBox="-40 -40 80 80" xmlns="http://www.w3.org/2000/svg"><circle r="39" fill="#a8790a"/><g transform="translate(0,-3) scale(.95)"><g>
<path d="M-11,32 C-11,24 -8,19 0,19 C8,19 11,24 11,32 Z" fill="#fff"/>
<circle cx="0" cy="12" r="5.5" fill="#fff"/>
<g transform="scale(1,1)">
<path d="M-7,22 C-10,10 -13,-2 -15,-14" fill="none" stroke="#fff" stroke-width="5.5" stroke-linecap="round"/>
<circle cx="-15.5" cy="-17" r="4" fill="#fff"/>
<g fill="none" stroke="#fff" stroke-width="2.4" stroke-linecap="round">
<rect x="-24" y="-16" width="5" height="9" rx="2.5"/>
<path d="M-21.5,-6 v5"/>
<rect x="-24" y="0" width="5" height="9" rx="2.5"/>
<path d="M-21.5,10 v5"/>
<rect x="-24" y="16" width="5" height="9" rx="2.5"/>
<path d="M-12.5,-20 l4,-3 M-9,-24 a2.5,2.5 0 0 1 4,2 l-1.5,3"/>
</g></g><g transform="scale(-1,1)">
<path d="M-7,22 C-10,10 -13,-2 -15,-14" fill="none" stroke="#fff" stroke-width="5.5" stroke-linecap="round"/>
<circle cx="-15.5" cy="-17" r="4" fill="#fff"/>
<g fill="none" stroke="#fff" stroke-width="2.4" stroke-linecap="round">
<rect x="-24" y="-16" width="5" height="9" rx="2.5"/>
<path d="M-21.5,-6 v5"/>
<rect x="-24" y="0" width="5" height="9" rx="2.5"/>
<path d="M-21.5,10 v5"/>
<rect x="-24" y="16" width="5" height="9" rx="2.5"/>
<path d="M-12.5,-20 l4,-3 M-9,-24 a2.5,2.5 0 0 1 4,2 l-1.5,3"/>
</g></g>
</g></g></svg>